# This file uses centimeters as units for non-parametric coordinates.

mtllib cratebox.mtl
g default
v -0.500000 -0.500000 0.500000
v 0.500000 -0.500000 0.500000
v -0.500000 0.500000 0.500000
v 0.500000 0.500000 0.500000
v -0.500000 0.500000 -0.500000
v 0.500000 0.500000 -0.500000
v -0.500000 -0.500000 -0.500000
v 0.500000 -0.500000 -0.500000
v -0.345000 0.500000 0.345000
v 0.345000 0.500000 0.345000
v 0.345000 0.500000 -0.345000
v -0.345000 0.500000 -0.345000
v -0.500000 -0.345000 -0.345000
v -0.500000 -0.345000 0.345000
v -0.500000 0.345000 0.345000
v -0.500000 0.345000 -0.345000
v -0.345000 -0.345000 0.500000
v 0.345000 -0.345000 0.500000
v 0.345000 0.345000 0.500000
v -0.345000 0.345000 0.500000
v 0.500000 -0.345000 -0.345000
v 0.500000 -0.345000 0.345000
v 0.500000 0.345000 -0.345000
v 0.500000 0.345000 0.345000
v -0.345000 0.345000 -0.500000
v 0.345000 0.345000 -0.500000
v 0.345000 -0.345000 -0.500000
v -0.345000 -0.345000 -0.500000
v -0.345000 -0.345000 0.466731
v 0.345000 -0.345000 0.466731
v 0.345000 0.345000 0.466731
v -0.345000 0.345000 0.466731
v -0.345000 0.466731 0.345000
v 0.345000 0.466731 0.345000
v 0.345000 0.466731 -0.345000
v -0.345000 0.466731 -0.345000
v -0.345000 0.345000 -0.466731
v 0.345000 0.345000 -0.466731
v 0.345000 -0.345000 -0.466731
v -0.345000 -0.345000 -0.466731
v 0.466731 -0.345000 -0.345000
v 0.466731 -0.345000 0.345000
v 0.466731 0.345000 -0.345000
v 0.466731 0.345000 0.345000
v -0.466731 -0.345000 -0.345000
v -0.466731 -0.345000 0.345000
v -0.466731 0.345000 0.345000
v -0.466731 0.345000 -0.345000
vt 0.214100 0.597130
vt 0.398457 0.597130
vt 0.398457 0.781488
vt 0.214100 0.781488
vt 0.417872 0.597130
vt 0.602230 0.597130
vt 0.602230 0.781488
vt 0.417872 0.781488
vt 0.719812 0.015444
vt 0.986997 0.015444
vt 0.945583 0.056857
vt 0.761226 0.056857
vt 0.986997 0.282629
vt 0.945583 0.241215
vt 0.719812 0.282629
vt 0.761226 0.241215
vt 0.720155 0.298436
vt 0.987340 0.298436
vt 0.945926 0.339849
vt 0.761568 0.339849
vt 0.987340 0.565620
vt 0.945926 0.524207
vt 0.720155 0.565620
vt 0.761568 0.524207
vt 0.417983 0.803891
vt 0.602341 0.803891
vt 0.602341 0.988249
vt 0.417983 0.988249
vt 0.020739 0.021134
vt 0.287924 0.021134
vt 0.287924 0.288319
vt 0.020739 0.288319
vt 0.419401 0.016526
vt 0.686586 0.016526
vt 0.645172 0.057940
vt 0.460814 0.057940
vt 0.686586 0.283711
vt 0.645172 0.242297
vt 0.419401 0.283711
vt 0.460814 0.242297
vt 0.214467 0.803891
vt 0.398824 0.803891
vt 0.398824 0.988249
vt 0.214467 0.988249
vt 0.021177 0.387795
vt 0.205535 0.387795
vt 0.205535 0.572153
vt 0.021177 0.572153
vt 0.719887 0.586102
vt 0.987072 0.586102
vt 0.945658 0.627516
vt 0.761301 0.627516
vt 0.987072 0.853287
vt 0.945658 0.811874
vt 0.719887 0.853287
vt 0.761301 0.811874
vt 0.419256 0.299640
vt 0.686441 0.299640
vt 0.645027 0.341054
vt 0.460670 0.341054
vt 0.686441 0.566825
vt 0.645027 0.525412
vt 0.419256 0.566825
vt 0.460670 0.525412
vn 0.000000 0.000000 1.000000
vn 0.000000 0.000000 1.000000
vn 0.000000 0.000000 1.000000
vn 0.000000 0.000000 1.000000
vn 0.000000 1.000000 0.000000
vn 0.000000 1.000000 0.000000
vn 0.000000 1.000000 0.000000
vn 0.000000 1.000000 0.000000
vn 0.000000 0.000000 -1.000000
vn 0.000000 0.000000 -1.000000
vn 0.000000 0.000000 -1.000000
vn 0.000000 0.000000 -1.000000
vn 0.000000 -1.000000 0.000000
vn 0.000000 -1.000000 0.000000
vn 0.000000 -1.000000 0.000000
vn 0.000000 -1.000000 0.000000
vn 1.000000 0.000000 0.000000
vn 1.000000 0.000000 0.000000
vn 1.000000 0.000000 0.000000
vn 1.000000 0.000000 0.000000
vn -1.000000 0.000000 0.000000
vn -1.000000 0.000000 0.000000
vn -1.000000 0.000000 0.000000
vn -1.000000 0.000000 0.000000
vn 0.000000 1.000000 0.000000
vn 0.000000 1.000000 0.000000
vn 0.000000 1.000000 0.000000
vn 0.000000 1.000000 0.000000
vn 0.000000 1.000000 0.000000
vn 0.000000 1.000000 0.000000
vn 0.000000 1.000000 0.000000
vn 0.000000 1.000000 0.000000
vn -1.000000 0.000000 0.000000
vn -1.000000 0.000000 0.000000
vn -1.000000 0.000000 0.000000
vn -1.000000 0.000000 0.000000
vn -1.000000 0.000000 0.000000
vn -1.000000 0.000000 0.000000
vn -1.000000 0.000000 0.000000
vn -1.000000 0.000000 0.000000
vn -0.000000 0.000000 1.000000
vn 0.000000 0.000000 1.000000
vn 0.000000 0.000000 1.000000
vn -0.000000 0.000000 1.000000
vn 0.000000 0.000000 1.000000
vn 0.000000 0.000000 1.000000
vn -0.000000 0.000000 1.000000
vn -0.000000 0.000000 1.000000
vn 1.000000 0.000000 0.000000
vn 1.000000 0.000000 0.000000
vn 1.000000 0.000000 0.000000
vn 1.000000 0.000000 0.000000
vn 1.000000 0.000000 0.000000
vn 1.000000 0.000000 0.000000
vn 1.000000 0.000000 0.000000
vn 1.000000 0.000000 0.000000
vn 0.000000 0.000000 -1.000000
vn 0.000000 0.000000 -1.000000
vn 0.000000 0.000000 -1.000000
vn 0.000000 0.000000 -1.000000
vn 0.000000 0.000000 -1.000000
vn 0.000000 0.000000 -1.000000
vn 0.000000 0.000000 -1.000000
vn 0.000000 0.000000 -1.000000
vn 0.000000 1.000000 0.000000
vn 0.000000 1.000000 0.000000
vn 0.000000 1.000000 0.000000
vn 0.000000 1.000000 0.000000
vn -1.000000 0.000000 0.000000
vn -1.000000 0.000000 0.000000
vn -1.000000 0.000000 0.000000
vn -1.000000 0.000000 0.000000
vn 0.000000 -1.000000 0.000000
vn 0.000000 -1.000000 0.000000
vn 0.000000 -1.000000 0.000000
vn 0.000000 -1.000000 0.000000
vn 1.000000 0.000000 0.000000
vn 1.000000 0.000000 0.000000
vn 1.000000 0.000000 0.000000
vn 1.000000 0.000000 0.000000
vn 0.000000 0.000000 -1.000000
vn 0.000000 0.000000 -1.000000
vn 0.000000 0.000000 -1.000000
vn 0.000000 0.000000 -1.000000
vn -1.000000 0.000000 0.000000
vn -1.000000 0.000000 0.000000
vn -1.000000 0.000000 0.000000
vn -1.000000 0.000000 0.000000
vn 0.000000 0.000000 1.000000
vn 0.000000 0.000000 1.000000
vn 0.000000 0.000000 1.000000
vn 0.000000 0.000000 1.000000
vn 1.000000 0.000000 0.000000
vn 1.000000 0.000000 0.000000
vn 1.000000 0.000000 0.000000
vn 1.000000 0.000000 0.000000
vn 0.000000 -1.000000 0.000000
vn 0.000000 -1.000000 0.000000
vn 0.000000 -1.000000 0.000000
vn 0.000000 -1.000000 0.000000
vn -1.000000 0.000000 0.000000
vn -1.000000 0.000000 0.000000
vn -1.000000 0.000000 0.000000
vn -1.000000 0.000000 0.000000
vn 0.000000 1.000000 0.000000
vn 0.000000 1.000000 0.000000
vn 0.000000 1.000000 0.000000
vn 0.000000 1.000000 0.000000
vn 1.000000 0.000000 0.000000
vn 1.000000 0.000000 0.000000
vn 1.000000 0.000000 0.000000
vn 1.000000 0.000000 0.000000
vn 0.000000 1.000000 0.000000
vn 0.000000 1.000000 0.000000
vn 0.000000 1.000000 0.000000
vn 0.000000 1.000000 0.000000
vn 0.000000 0.000000 1.000000
vn 0.000000 0.000000 1.000000
vn 0.000000 0.000000 1.000000
vn 0.000000 0.000000 1.000000
vn 0.000000 -1.000000 0.000000
vn 0.000000 -1.000000 0.000000
vn 0.000000 -1.000000 0.000000
vn 0.000000 -1.000000 0.000000
vn 0.000000 0.000000 -1.000000
vn 0.000000 0.000000 -1.000000
vn 0.000000 0.000000 -1.000000
vn 0.000000 0.000000 -1.000000
vn 0.000000 1.000000 0.000000
vn 0.000000 1.000000 0.000000
vn 0.000000 1.000000 0.000000
vn 0.000000 1.000000 0.000000
vn 0.000000 0.000000 -1.000000
vn 0.000000 0.000000 -1.000000
vn 0.000000 0.000000 -1.000000
vn 0.000000 0.000000 -1.000000
vn 0.000000 -1.000000 0.000000
vn 0.000000 -1.000000 0.000000
vn 0.000000 -1.000000 0.000000
vn 0.000000 -1.000000 0.000000
vn 0.000000 0.000000 1.000000
vn 0.000000 0.000000 1.000000
vn 0.000000 0.000000 1.000000
vn 0.000000 0.000000 1.000000
s off
g pCube1
usemtl initialShadingGroup
f 29/41/1 30/42/2 31/43/3 32/44/4
f 33/25/5 34/26/6 35/27/7 36/28/8
f 37/45/9 38/46/10 39/47/11 40/48/12
f 7/29/13 8/30/14 2/31/15 1/32/16
f 42/1/17 41/2/18 43/3/19 44/4/20
f 45/5/21 46/6/22 47/7/23 48/8/24
s 1
f 3/33/25 4/34/26 10/35/27 9/36/28
f 4/34/26 6/37/29 11/38/30 10/35/27
f 6/37/29 5/39/31 12/40/32 11/38/30
f 5/39/31 3/33/25 9/36/28 12/40/32
s 2
f 7/9/33 1/10/34 14/11/35 13/12/36
f 1/10/34 3/13/37 15/14/38 14/11/35
f 3/13/37 5/15/39 16/16/40 15/14/38
f 5/15/39 7/9/33 13/12/36 16/16/40
s 3
f 1/49/41 2/50/42 18/51/43 17/52/44
f 2/50/42 4/53/45 19/54/46 18/51/43
f 4/53/45 3/55/47 20/56/48 19/54/46
f 3/55/47 1/49/41 17/52/44 20/56/48
s 4
f 2/17/49 8/18/50 21/19/51 22/20/52
f 8/18/50 6/21/53 23/22/54 21/19/51
f 6/21/53 4/23/55 24/24/56 23/22/54
f 4/23/55 2/17/49 22/20/52 24/24/56
s 5
f 5/57/57 6/58/58 26/59/59 25/60/60
f 6/58/58 8/61/61 27/62/62 26/59/59
f 8/61/61 7/63/63 28/64/64 27/62/62
f 7/63/63 5/57/57 25/60/60 28/64/64
s off
f 17//65 18//66 30//67 29//68
f 18//69 19//70 31//71 30//72
f 19//73 20//74 32//75 31//76
f 20//77 17//78 29//79 32//80
f 9//81 10//82 34//83 33//84
f 10//85 11//86 35//87 34//88
f 11//89 12//90 36//91 35//92
f 12//93 9//94 33//95 36//96
f 25//97 26//98 38//99 37//100
f 26//101 27//102 39//103 38//104
f 27//105 28//106 40//107 39//108
f 28//109 25//110 37//111 40//112
f 22//113 21//114 41//115 42//116
f 21//117 23//118 43//119 41//120
f 23//121 24//122 44//123 43//124
f 24//125 22//126 42//127 44//128
f 13//129 14//130 46//131 45//132
f 14//133 15//134 47//135 46//136
f 15//137 16//138 48//139 47//140
f 16//141 13//142 45//143 48//144
