# This file uses centimeters as units for non-parametric coordinates.

mtllib crowbar.mtl
g default
v -4.601970 -7.018911 0.238879
v -4.188220 -7.257789 0.238879
v 3.851525 7.622972 0.238879
v 4.265275 7.384093 0.238879
v 3.851525 7.622972 -0.238879
v 4.265275 7.384093 -0.238879
v -4.601970 -7.018911 -0.238879
v -4.188220 -7.257789 -0.238879
v 6.096835 5.518299 0.648900
v 6.208043 5.548104 0.648900
v 5.327598 7.313497 0.276828
v 5.900468 7.466997 0.276828
v 5.327598 7.313497 -0.316251
v 5.900468 7.466997 -0.316251
v 6.096835 5.518299 -0.648900
v 6.208043 5.548104 -0.648900
v 4.550572 7.699314 0.296540
v 4.550572 7.699314 -0.296540
v 4.225168 8.071517 -0.296540
v 4.225168 8.071517 0.296540
v 4.915446 7.790645 0.296540
v 4.915446 7.790645 -0.296540
v 4.945261 8.256862 -0.296540
v 4.945261 8.256862 0.296540
v 5.230597 7.706210 0.296540
v 5.230597 7.706210 -0.296540
v 5.628579 7.960954 -0.296540
v 5.628579 7.960954 0.296540
v -6.217691 -6.571881 0.296540
v -5.762313 -6.492378 0.296540
v -6.174768 -5.243536 0.483124
v -5.759438 -5.547495 0.483124
v -6.174768 -5.243536 -0.483124
v -5.759438 -5.547495 -0.483124
v -6.217691 -6.571881 -0.296540
v -5.762313 -6.492378 -0.296540
v -4.861004 -7.785797 0.296540
v -5.019946 -7.282109 0.296540
v -5.019946 -7.282109 -0.296540
v -4.861004 -7.785797 -0.296540
v -5.920243 -7.316324 0.296540
v -5.501976 -7.038423 0.296540
v -5.501976 -7.038423 -0.296540
v -5.920243 -7.316324 -0.296540
v 3.851525 7.622972 0.000000
v 4.225168 8.071517 0.000000
v 4.945261 8.256862 0.000000
v 5.628579 7.960954 0.000000
v 5.900468 7.466997 -0.019711
v 6.166465 5.703271 0.000000
v 6.055257 5.673466 -0.000000
v 5.327598 7.313497 -0.019711
v 5.230597 7.706210 0.000000
v 4.915446 7.790645 0.000000
v 4.550572 7.699314 -0.000000
v 4.265275 7.384093 0.000000
v -4.188220 -7.257789 0.000000
v -4.861004 -7.785797 0.000000
v -5.920243 -7.316324 0.000000
v -6.217691 -6.571881 0.000000
v -6.174768 -5.243536 0.000000
v -5.759438 -5.547495 0.000000
v -5.762313 -6.492378 0.000000
v -5.501976 -7.038423 0.000000
v -5.019946 -7.282109 0.000000
v -4.601970 -7.018911 0.000000
v 5.706384 6.414810 0.410961
v 6.097930 6.519723 0.410961
v 6.097930 6.519723 0.000000
v 6.097930 6.519723 -0.410961
v 5.706384 6.414810 -0.410961
v 5.706384 6.414810 0.000000
vt 0.336633 0.059972
vt 0.336633 0.915774
vt 0.324541 0.915774
vt 0.324541 0.059972
vt 0.348724 0.915774
vt 0.348724 0.059972
vt 0.336633 0.955948
vt 0.321622 0.955948
vt 0.336633 0.038933
vt 0.321622 0.038933
vt 0.351643 0.955948
vt 0.351643 0.038933
vt 0.336633 0.025695
vt 0.321622 0.025695
vt 0.351643 0.025695
vt 0.708424 0.931075
vt 0.696333 0.931075
vt 0.696333 0.075273
vt 0.708424 0.075273
vt 0.696333 0.953192
vt 0.711343 0.953192
vt 0.684241 0.931075
vt 0.684241 0.075273
vt 0.696333 0.046154
vt 0.711343 0.046154
vt 0.681322 0.953192
vt 0.681322 0.046154
vt 0.696333 0.019804
vt 0.711343 0.019804
vt 0.681322 0.019804
vt 0.806641 0.728813
vt 0.806641 0.685767
vt 0.822213 0.685767
vt 0.832043 0.728813
vt 0.791068 0.685767
vt 0.781302 0.728813
vt 0.806641 0.667856
vt 0.822213 0.667856
vt 0.791068 0.667856
vt 0.877249 0.725805
vt 0.892821 0.725805
vt 0.892811 0.787359
vt 0.867441 0.787359
vt 0.877265 0.699779
vt 0.892837 0.699779
vt 0.908393 0.725805
vt 0.918182 0.787359
vt 0.908410 0.699779
vt 0.887793 0.254942
vt 0.887793 0.271491
vt 0.871962 0.271491
vt 0.871962 0.254942
vt 0.903107 0.271491
vt 0.903107 0.254942
vt 0.887793 0.240219
vt 0.871962 0.240219
vt 0.903107 0.240219
vt 0.866471 0.199397
vt 0.887793 0.199397
vt 0.909633 0.199397
vt 0.853976 0.158101
vt 0.887793 0.164066
vt 0.922128 0.158101
vt 0.853976 0.153826
vt 0.887793 0.159791
vt 0.922128 0.153826
vt 0.817916 0.282377
vt 0.802344 0.282377
vt 0.802344 0.243531
vt 0.817916 0.243531
vt 0.786771 0.282377
vt 0.786771 0.243531
vt 0.802344 0.218197
vt 0.817916 0.218197
vt 0.786771 0.218197
vt 0.802344 0.184345
vt 0.823407 0.184345
vt 0.780245 0.184345
vt 0.802344 0.159791
vt 0.835902 0.153826
vt 0.767750 0.153826
vt 0.806641 0.639624
vt 0.822213 0.639624
vt 0.791068 0.639624
vt 0.877281 0.639301
vt 0.892853 0.639301
vt 0.908426 0.639301
vt 0.892801 0.814245
vt 0.867431 0.814245
vt 0.918171 0.814245
vt 0.491604 0.061270
vt 0.515787 0.061270
vt 0.515787 0.917072
vt 0.491603 0.917072
vt 0.479942 0.039154
vt 0.499658 0.021096
vt 0.520315 0.938111
vt 0.496630 0.946191
vt 0.452644 0.037636
vt 0.441342 0.014868
vt 0.533998 0.951349
vt 0.523506 0.972541
vt 0.427412 0.054984
vt 0.409462 0.039974
vt 0.549950 0.955624
vt 0.560949 0.976864
vt 0.403624 0.096477
vt 0.377724 0.099290
vt 0.564142 0.940864
vt 0.585370 0.962091
vt 0.603492 0.911055
vt 0.618000 0.925564
vt 0.643298 0.881637
vt 0.647418 0.885758
vt 0.169975 0.921489
vt 0.145791 0.921489
vt 0.145791 0.065687
vt 0.169975 0.065687
vt 0.164948 0.950608
vt 0.141263 0.942528
vt 0.161921 0.025513
vt 0.181636 0.043571
vt 0.138072 0.976958
vt 0.127580 0.955766
vt 0.220236 0.019285
vt 0.208934 0.042053
vt 0.100628 0.981281
vt 0.111627 0.960041
vt 0.252117 0.044391
vt 0.234166 0.059401
vt 0.076208 0.966508
vt 0.097436 0.945280
vt 0.283854 0.103707
vt 0.257955 0.100894
vt 0.043577 0.929981
vt 0.058086 0.915472
vt 0.014159 0.890175
vt 0.018280 0.886054
vn 0.000000 0.000000 1.000000
vn 0.000000 0.000000 1.000000
vn 0.000000 0.000000 1.000000
vn 0.000000 0.000000 1.000000
vn 0.000000 0.000000 -1.000000
vn 0.000000 0.000000 -1.000000
vn 0.000000 0.000000 -1.000000
vn 0.000000 0.000000 -1.000000
vn 0.866025 -0.500000 0.000000
vn 0.866025 -0.500000 0.000000
vn 0.866025 -0.500000 0.000000
vn 0.866025 -0.500000 0.000000
vn -0.866025 0.500000 0.000000
vn -0.866025 0.500000 0.000000
vn -0.866025 0.500000 0.000000
vn -0.866025 0.500000 0.000000
vn -0.043723 0.163174 0.985628
vn -0.043996 0.164190 0.985447
vn -0.035593 0.132834 0.990499
vn -0.035593 0.132834 0.990499
vn -0.025252 0.094241 -0.995229
vn -0.025252 0.094241 -0.995229
vn -0.037013 0.138132 -0.989722
vn -0.036631 0.136705 -0.989934
vn 0.251292 -0.937607 0.240305
vn 0.251292 -0.937607 0.240305
vn 0.258878 -0.965910 0.000000
vn 0.258878 -0.965910 0.000000
vn 0.978957 0.204066 0.000000
vn 0.989866 0.142003 0.000000
vn 0.990495 0.136657 0.015657
vn 0.978957 0.204066 0.000000
vn -0.914344 -0.404639 0.015587
vn -0.915020 -0.403409 0.000000
vn -0.921492 -0.388398 0.000000
vn -0.921492 -0.388398 0.000000
vn -0.970824 -0.239795 0.000000
vn -0.756769 -0.653683 0.000000
vn -0.762527 -0.646957 0.000000
vn -0.970824 -0.239795 0.000000
vn -0.007714 0.018344 -0.999802
vn -0.010150 0.024137 -0.999657
vn -0.015899 0.037809 -0.999159
vn -0.015899 0.037809 -0.999159
vn 0.640094 0.768297 0.000000
vn 0.637256 0.770652 0.000000
vn 0.876057 0.482208 0.000000
vn 0.876057 0.482208 0.000000
vn 0.010150 -0.024137 0.999657
vn 0.007714 -0.018344 0.999802
vn 0.015899 -0.037809 0.999159
vn 0.015899 -0.037809 0.999159
vn 0.516966 -0.856006 0.000000
vn 0.741421 -0.671040 0.000000
vn 0.741421 -0.671040 0.000000
vn 0.505255 -0.862970 0.000000
vn -0.072389 -0.087560 -0.993526
vn -0.072389 -0.087560 -0.993526
vn -0.040381 -0.048844 -0.997990
vn -0.032451 -0.039253 -0.998702
vn -0.768343 0.640038 0.000000
vn -0.768343 0.640038 0.000000
vn -0.487428 0.873163 0.000000
vn -0.478633 0.878015 0.000000
vn -0.072389 -0.087560 0.993526
vn -0.072389 -0.087560 0.993526
vn -0.032451 -0.039253 0.998702
vn -0.040381 -0.048844 0.997990
vn 0.010141 -0.999949 0.000000
vn 0.010141 -0.999949 0.000000
vn -0.000000 0.000000 -1.000000
vn -0.000000 0.000000 -1.000000
vn 0.078538 0.996911 0.000000
vn 0.078538 0.996911 0.000000
vn -0.000000 0.000000 1.000000
vn -0.000000 0.000000 1.000000
vn -0.041513 -0.161036 0.986075
vn -0.041513 -0.161036 0.986075
vn -0.041513 -0.161036 0.986075
vn -0.041513 -0.161036 0.986075
vn -0.041513 -0.161036 -0.986075
vn -0.041513 -0.161036 -0.986075
vn -0.041513 -0.161036 -0.986075
vn -0.041513 -0.161036 -0.986075
vn 0.999995 -0.003042 0.000000
vn 0.999995 -0.003042 0.000000
vn 0.999995 -0.003042 0.000000
vn 0.999995 -0.003042 0.000000
vn -0.999478 0.032296 0.000000
vn -0.999478 0.032296 0.000000
vn -0.999478 0.032296 0.000000
vn -0.999478 0.032296 0.000000
vn 0.000000 -0.000000 1.000000
vn 0.000000 -0.000000 1.000000
vn 0.000000 0.000000 1.000000
vn 0.000000 0.000000 1.000000
vn 0.902658 0.430359 0.000000
vn 0.728618 0.684920 0.000000
vn 0.728618 0.684920 0.000000
vn 0.902658 0.430359 0.000000
vn -0.000000 0.000000 -1.000000
vn -0.000000 0.000000 -1.000000
vn -0.000000 0.000000 -1.000000
vn -0.000000 0.000000 -1.000000
vn -0.666807 -0.745231 0.000000
vn -0.666807 -0.745231 0.000000
vn -0.928619 -0.371036 0.000000
vn -0.928619 -0.371036 0.000000
vn 0.067551 0.052098 0.996355
vn 0.067551 0.052098 0.996355
vn 0.028078 0.021655 0.999371
vn 0.038265 0.029511 0.998832
vn 0.007071 0.999975 0.000000
vn -0.532854 0.846207 0.000000
vn -0.532854 0.846207 0.000000
vn 0.028440 0.999596 0.000000
vn 0.067551 0.052098 -0.996355
vn 0.067551 0.052098 -0.996355
vn 0.038265 0.029511 -0.998832
vn 0.028078 0.021655 -0.999371
vn 0.617382 -0.786664 0.000000
vn 0.617382 -0.786664 0.000000
vn 0.004320 -0.999991 0.000000
vn -0.008063 -0.999968 0.000000
vn 0.590584 0.806976 0.000000
vn 0.590584 0.806976 0.000000
vn 0.590584 0.806976 0.000000
vn 0.590584 0.806976 0.000000
vn -0.768343 0.640038 0.000000
vn -0.478633 0.878015 0.000000
vn 0.078538 0.996911 0.000000
vn 0.634356 0.773041 0.000000
vn 0.876057 0.482208 0.000000
vn 0.990588 0.135958 -0.015818
vn 0.978957 0.204066 0.000000
vn 0.251292 -0.937607 -0.240304
vn 0.251292 -0.937607 -0.240304
vn -0.914268 -0.404805 -0.015747
vn -0.921492 -0.388398 0.000000
vn -0.750740 -0.660598 0.000000
vn -0.970824 -0.239795 0.000000
vn 0.010141 -0.999949 0.000000
vn 0.505255 -0.862970 0.000000
vn 0.741421 -0.671040 0.000000
vn 0.866025 -0.500000 0.000000
vn 0.866025 -0.500000 0.000000
vn 0.617382 -0.786664 0.000000
vn -0.008063 -0.999968 0.000000
vn -0.666807 -0.745231 0.000000
vn -0.928619 -0.371036 0.000000
vn -0.999478 0.032296 0.000000
vn -0.999478 0.032296 0.000000
vn 0.590584 0.806976 0.000000
vn 0.590584 0.806976 0.000000
vn 0.999995 -0.003042 0.000000
vn 0.999995 -0.003042 0.000000
vn 0.728618 0.684920 0.000000
vn 0.902658 0.430359 0.000000
vn 0.028440 0.999596 0.000000
vn -0.532854 0.846207 0.000000
vn -0.866025 0.500000 0.000000
vn -0.866025 0.500000 0.000000
vn -0.061842 0.230785 0.971037
vn -0.061842 0.230785 0.971037
vn 0.995059 0.096095 -0.024967
vn 0.995369 0.096125 0.000000
vn 0.995059 0.096095 0.024967
vn -0.061842 0.230785 -0.971038
vn -0.061842 0.230785 -0.971038
vn -0.909795 -0.414306 0.024966
vn -0.910079 -0.414435 0.000000
vn -0.909795 -0.414306 -0.024966
s off
g crowbar
usemtl lambert2SG
f 1/91/1 2/92/2 4/93/3 3/94/4
f 5/115/5 6/116/6 8/117/7 7/118/8
s 1
f 56/1/9 57/2/10 8/3/11 6/4/12
s 2
f 7/16/13 66/17/14 45/18/15 5/19/16
s 3
f 67/111/17 68/112/18 12/110/19 11/109/20
s 4
f 13/132/21 14/131/22 70/135/23 71/136/24
s 5
f 15/61/25 16/64/26 50/65/27 51/62/28
s 6
f 49/73/29 69/76/30 70/77/31 14/74/32
s 7
f 71/58/33 72/59/34 52/55/35 13/56/36
s 8
f 52/55/37 53/49/38 26/52/39 13/56/40
s 9
f 26/128/41 27/127/42 14/131/43 13/132/44
s 10
f 27/70/45 48/69/46 49/73/47 14/74/48
s 11
f 28/106/49 25/105/50 11/109/51 12/110/52
s 8
f 55/9/53 56/1/54 6/4/55 18/10/56
s 9
f 6/116/57 5/115/58 19/119/59 18/120/60
s 10
f 5/19/61 45/18/62 46/24/63 19/25/64
s 11
f 3/94/65 4/93/66 17/97/67 20/98/68
s 8
f 54/13/69 55/9/53 18/10/56 22/14/70
s 9
f 18/120/60 19/119/59 23/123/71 22/124/72
s 10
f 19/25/64 46/24/63 47/28/73 23/29/74
s 11
f 20/98/68 17/97/67 21/101/75 24/102/76
s 8
f 53/49/38 54/50/69 22/51/70 26/52/39
s 9
f 22/124/72 23/123/71 27/127/42 26/128/41
s 10
f 23/67/74 47/68/73 48/69/46 27/70/45
s 11
f 24/102/76 21/101/75 25/105/50 28/106/49
s off
f 29/104/77 30/103/78 32/107/79 31/108/80
f 33/133/81 34/134/82 36/130/83 35/129/84
s 16
f 62/31/85 63/32/86 36/33/87 34/34/88
s 17
f 35/40/89 60/41/90 61/42/91 33/43/92
s 18
f 41/100/93 42/99/94 30/103/95 29/104/96
s 19
f 63/32/97 64/37/98 43/38/99 36/33/100
s 20
f 43/126/101 44/125/102 35/129/103 36/130/104
s 21
f 44/44/105 59/45/106 60/41/107 35/40/108
s 18
f 2/92/109 1/91/110 38/95/111 37/96/112
s 19
f 65/20/113 66/17/114 7/16/115 39/21/116
s 20
f 7/118/117 8/117/118 40/121/119 39/122/120
s 21
f 8/3/121 57/2/122 58/7/123 40/8/124
s 18
f 37/96/112 38/95/111 42/99/94 41/100/93
s 19
f 64/37/98 65/82/113 39/83/116 43/38/99
s 20
f 39/122/120 40/121/119 44/125/102 43/126/101
s 21
f 40/85/124 58/86/123 59/45/106 44/44/105
s 24
f 61/42/125 62/88/126 34/89/127 33/43/128
s 10
f 46/24/63 45/18/62 3/23/129 20/27/130
f 47/28/73 46/24/63 20/27/130 24/30/131
f 48/69/46 47/68/73 24/71/131 28/72/132
f 49/73/47 48/69/46 28/72/132 12/75/133
s 6
f 68/78/134 69/76/30 49/73/29 12/75/135
s 5
f 51/62/28 50/65/27 10/66/136 9/63/137
s 7
f 52/55/35 72/59/34 67/60/138 11/57/139
s 8
f 25/54/140 53/49/38 52/55/37 11/57/141
f 21/53/142 54/50/69 53/49/38 25/54/140
f 17/12/143 55/9/53 54/13/69 21/15/142
f 4/6/144 56/1/54 55/9/53 17/12/143
s 1
f 2/5/145 57/2/10 56/1/9 4/6/146
s 21
f 58/7/123 57/2/122 2/5/147 37/11/148
f 59/45/106 58/86/123 37/87/148 41/48/149
f 60/41/107 59/45/106 41/48/149 29/46/150
s 17
f 61/42/91 60/41/90 29/46/151 31/47/152
s 24
f 32/90/153 62/88/126 61/42/125 31/47/154
s 16
f 30/35/155 63/32/86 62/31/85 32/36/156
s 19
f 42/39/157 64/37/98 63/32/97 30/35/158
f 38/84/159 65/82/113 64/37/98 42/39/157
f 1/22/160 66/17/114 65/20/113 38/26/159
s 2
f 45/18/15 66/17/14 1/22/161 3/23/162
s 3
f 9/113/163 10/114/164 68/112/18 67/111/17
s 6
f 10/81/165 50/79/166 69/76/30 68/78/134
f 70/77/31 69/76/30 50/79/166 16/80/167
s 4
f 71/136/24 70/135/23 16/137/168 15/138/169
s 7
f 15/61/170 51/62/171 72/59/34 71/58/33
f 67/60/138 72/59/34 51/62/171 9/63/172
